<?xml version="1.0" encoding="UTF-8"?>
<svg width="180px" height="264px" viewBox="0 0 180 264" version="1.1" xmlns="http://www.w3.org/2000/svg" xmlns:xlink="http://www.w3.org/1999/xlink">
    <!-- Generator: sketchtool 40.1 (33804) - http://www.bohemiancoding.com/sketch -->
    <title>F845A6A0-22E3-4F34-A8BF-14D2BF23E3F2</title>
    <desc>Created with sketchtool.</desc>
    <defs>
        <path d="M151.763637,186.328589 L152,41.9002981 C151.769805,31.0815489 146.970757,28.1500523 132.913282,16.3711909 C118.855807,4.5923295 117.9924,2.2038199 104.589288,1.456285 L21.009905,0.974636263 C9.96295991,0.910975262 0.953198446,9.81073395 0.885971043,20.8640675 L0,166.532842 L9.40253503,168.604133 C10.4805376,168.841607 11.770141,169.817002 12.2955115,170.806403 L21.9589485,189.005032 L22.0791045,186.193482" id="path-1"></path>
    </defs>
    <g id="Relish-App" stroke="none" stroke-width="1" fill="none" fill-rule="evenodd">
        <g id="3.-Ran-Out-of-Time" transform="translate(-98.000000, -54.000000)">
            <g id="TooLate_Illustration" transform="translate(98.000000, 53.000000)">
                <ellipse id="Oval-4" fill-opacity="0.05" fill="#000000" cx="90" cy="253.5" rx="90" ry="11.5"></ellipse>
                <g id="Bag" transform="translate(14.000000, 0.500266)">
                    <g id="Group-2">
                        <mask id="mask-2" fill="white">
                            <use xlink:href="#path-1"></use>
                        </mask>
                        <use id="Rectangle-4" fill="#F0E698" xlink:href="#path-1"></use>
                        <g id="Crease" mask="url(#mask-2)" stroke-linecap="round" stroke="#FFF8B8" stroke-width="2" stroke-linejoin="round">
                            <g transform="translate(5.000000, 23.000000)">
                                <path d="M6.5,25 L6.5,147.710276" id="Path-2"></path>
                                <polyline id="Triangle-2" transform="translate(6.500000, 12.500000) rotate(-180.000000) translate(-6.500000, -12.500000) " points="0.556821132 14.411909 6.43467886 0.438829787 12.4431789 24.5611702"></polyline>
                            </g>
                        </g>
                    </g>
                    <path d="M22,189 L24.5,186.496296 L26.9673528,188.974532 M22,189 L22,41.9989298 C22,30.9538259 30.9610562,22 41.9920941,22 L132.007906,22 C143.049235,22 152,30.9491035 152,41.9989298 L152,189 M152,189 L149.5,186.496296 L147,189 M27,189 L29.5,186.496296 L32,189 M32,189 L34.5,186.496296 L37,189 M37,189 L39.5,186.496296 L42,189 M42,189 L44.5,186.496296 L47,189 M47,189 L49.5,186.496296 L52,189 M52,189 L54.5,186.496296 L57,189 M57,189 L59.5,186.496296 L62,189 M67,189 L69.5,186.496296 L72,189 M62,189 L64.5,186.496296 L67,189 M72,189 L74.5,186.496296 L77,189 M77,189 L79.5,186.496296 L82,189 M82,189 L84.5,186.496296 L87,189 M87,189 L89.5,186.496296 L92,189 M92,189 L94.5,186.496296 L97,189 M97,189 L99.5,186.496296 L102,189 M102,189 L104.5,186.496296 L107,189 M107,189 L109.5,186.496296 L112,189 M112,189 L114.5,186.496296 L117,189 M117,189 L119.5,186.496296 L122,189 M122,189 L124.5,186.496296 L127,189 M127,189 L129.5,186.496296 L132,189 M137,189 L139.5,186.496296 L142,189 M132,189 L134.5,186.496296 L137,189 M142,189 L144.5,186.496296 L147,189" id="Combined-Shape" fill="#FFF8B8" style="mix-blend-mode: lighten;"></path>
                    <text id="THANK-YOU" transform="translate(85.500000, 102.499734) rotate(-180.000000) translate(-85.500000, -102.499734) " font-family="Asap-Bold, Asap" font-size="22" font-weight="bold" letter-spacing="3.30000019" fill="#A99506">
                        <tspan x="42.1599995" y="97.4997342">THANK </tspan>
                        <tspan x="58.5279997" y="123.499734">YOU</tspan>
                    </text>
                </g>
                <g id="Apple-Core" transform="translate(78.000000, 213.000000)">
                    <path d="M5.55295006,39.5240385 C3.5694778,38.9045917 1.73917099,37.944245 0.132366056,36.7125359 C4.42980762,33.78726 7.26089781,28.7936593 7.26089781,23.125 C7.26089781,17.4243378 4.39775098,12.4063778 0.0594411862,9.48811734 C3.02305072,7.19148336 6.75710897,5.82222344 10.814651,5.82222344 C14.7905087,5.82222344 18.455776,7.13690788 21.3899423,9.35054468 C16.9353797,12.2470146 13.9804815,17.3337174 13.9804815,23.125 C13.9804815,28.8836514 16.9021745,33.9456404 21.314787,36.850286 C19.7229118,38.0378951 17.9187016,38.9621004 15.968461,39.5573507 C14.3741978,39.3611875 12.5537317,39.25 10.6206897,39.25 C8.79991091,39.25 7.07901189,39.3486478 5.55295006,39.5240385 Z" id="Dark-Red" fill="#C14D4B"></path>
                    <path d="M15.968461,39.5573507 C17.9187016,38.9621004 19.7229118,38.0378951 21.314787,36.850286 C16.9021745,33.9456404 13.9804815,28.8836514 13.9804815,23.125 C13.9804815,17.3337174 16.9353797,12.2470146 21.3899423,9.35054468 C19.8450164,8.18499897 18.0974046,7.26867307 16.2084898,6.66225213 C14.5579651,6.877287 12.6514501,7 10.6206897,7 C8.7035536,7 6.89714846,6.89063482 5.31231929,6.6974744 C3.39146482,7.32802755 1.61880199,8.2796987 0.0594411862,9.48811734 C4.39775098,12.4063778 7.26089781,17.4243378 7.26089781,23.125 C7.26089781,28.7936593 4.42980762,33.78726 0.132366056,36.7125359 C1.73917099,37.944245 3.5694778,38.9045917 5.55295006,39.5240385 C7.07901189,39.3486478 8.79991091,39.25 10.6206897,39.25 C12.5537317,39.25 14.3741978,39.3611875 15.968461,39.5573507 Z" id="Red" fill="#FA4744"></path>
                    <path d="M0.132366056,36.7125359 C0.196662403,36.7618227 0.261316622,36.8106751 0.326324206,36.8590885 C3.59827329,36.1881986 7.13053883,35.8222234 10.814651,35.8222234 C14.4987631,35.8222234 18.0310287,36.1881986 21.3029777,36.8590885 C21.3069155,36.856156 21.3108519,36.8532218 21.314787,36.850286 C16.9021745,33.9456404 13.9804815,28.8836514 13.9804815,23.125 C13.9804815,17.3337173 16.9353798,12.2470145 21.3899425,9.35054457 C21.3610241,9.32872776 21.3320362,9.3069992 21.3029777,9.28535835 C18.0310287,9.95624833 14.4987631,10.3222234 10.814651,10.3222234 C7.13053883,10.3222234 3.59827329,9.95624833 0.326324206,9.28535835 C0.236687417,9.35211399 0.147722473,9.41970421 0.0594411862,9.48811734 C4.39775098,12.4063778 7.26089781,17.4243378 7.26089781,23.125 C7.26089781,28.7936593 4.42980762,33.78726 0.132366056,36.7125359 Z" id="Core" fill="#FFF8B8"></path>
                    <ellipse id="Oval-Copy" fill="#6A6A6A" cx="9.48275862" cy="22.375" rx="0.379310345" ry="1.125"></ellipse>
                    <ellipse id="Oval-Copy-2" fill="#6A6A6A" cx="11.7586207" cy="22.375" rx="0.379310345" ry="1.125"></ellipse>
                    <path d="M11,5.32183991 C10.9458705,2.42354911 14.3099018,0.346350919 16.4892167,1.16904772" id="Path-3" stroke="#C0B97B" stroke-width="1.5" stroke-linecap="round"></path>
                </g>
            </g>
        </g>
    </g>
</svg>